<svg width="20" height="20" viewBox="0 0 20 20" fill="none" xmlns="http://www.w3.org/2000/svg">
<path d="M18.3333 1.875V18.125H1.66667V1.875H18.3333ZM17.7778 0H2.22222C0.988889 0 0 1.125 0 2.5V17.5C0 18.875 0.988889 20 2.22222 20H17.7778C19 20 20 18.875 20 17.5V2.5C20 1.125 19 0 17.7778 0ZM8.88889 8.75H7.22222V8.125H5V11.875H7.22222V11.25H8.88889V12.5C8.88889 13.1875 8.38889 13.75 7.77778 13.75H4.44444C3.83333 13.75 3.33333 13.1875 3.33333 12.5V7.5C3.33333 6.8125 3.83333 6.25 4.44444 6.25H7.77778C8.38889 6.25 8.88889 6.8125 8.88889 7.5V8.75ZM16.6667 8.75H15V8.125H12.7778V11.875H15V11.25H16.6667V12.5C16.6667 13.1875 16.1667 13.75 15.5556 13.75H12.2222C11.6111 13.75 11.1111 13.1875 11.1111 12.5V7.5C11.1111 6.8125 11.6111 6.25 12.2222 6.25H15.5556C16.1667 6.25 16.6667 6.8125 16.6667 7.5V8.75Z" fill="white"/>
</svg>
