<svg width="22" height="20" viewBox="0 0 22 20" fill="none" xmlns="http://www.w3.org/2000/svg">
<path d="M19.8411 1.875V18.125H1.80374V1.875H19.8411ZM19.2399 0H2.40498C1.07022 0 0 1.125 0 2.5V17.5C0 18.875 1.07022 20 2.40498 20H19.2399C20.5626 20 21.6448 18.875 21.6448 17.5V2.5C21.6448 1.125 20.5626 0 19.2399 0ZM9.61993 8.75H7.81619V8.125H5.41121V11.875H7.81619V11.25H9.61993V12.5C9.61993 13.1875 9.0788 13.75 8.41743 13.75H4.80996C4.14859 13.75 3.60747 13.1875 3.60747 12.5V7.5C3.60747 6.8125 4.14859 6.25 4.80996 6.25H8.41743C9.0788 6.25 9.61993 6.8125 9.61993 7.5V8.75ZM18.0374 8.75H16.2336V8.125H13.8286V11.875H16.2336V11.25H18.0374V12.5C18.0374 13.1875 17.4962 13.75 16.8349 13.75H13.2274C12.566 13.75 12.0249 13.1875 12.0249 12.5V7.5C12.0249 6.8125 12.566 6.25 13.2274 6.25H16.8349C17.4962 6.25 18.0374 6.8125 18.0374 7.5V8.75Z" fill="white"/>
</svg>
