<svg width="48" height="48" viewBox="0 0 48 48" fill="none" xmlns="http://www.w3.org/2000/svg">
<rect x="23" y="14" width="2" height="3" fill="#3A4857"/>
<path fill-rule="evenodd" clip-rule="evenodd" d="M26.5 34.75H21.5V33.25H26.5V34.75Z" fill="#3A4857"/>
<path fill-rule="evenodd" clip-rule="evenodd" d="M25.2044 17.6609L25.1811 17.6539C24.6098 17.4844 24.0165 17.4776 23.5382 17.5261C23.3047 17.5498 23.1135 17.5851 22.9864 17.6129C22.9232 17.6267 22.8771 17.6385 22.8507 17.6455C22.8393 17.6485 22.8317 17.6507 22.8281 17.6517L22.8002 17.6603L22.7645 17.6694C20.5859 18.2251 18.9705 20.2052 18.9705 22.5376V29.8789C18.9705 30.2175 18.8999 30.5378 18.7725 30.826H29.229C29.1016 30.5378 29.031 30.2175 29.031 29.8789V22.767C29.031 20.3505 27.4089 18.2379 25.228 17.667L25.2044 17.6609ZM31.3473 30.6946H32.1636V32.326H15.8379V30.6946H16.6542C17.1164 30.6946 17.4705 30.3408 17.4705 29.8789V22.5376C17.4705 19.4981 19.5719 16.9358 22.3937 16.2159C22.3937 16.2159 23.9707 15.7301 25.6078 16.2159C28.4806 16.9679 30.531 19.702 30.531 22.767V29.8789C30.531 30.3408 30.8851 30.6946 31.3473 30.6946Z" fill="#3A4857"/>
</svg>
