<svg width="24" height="25" viewBox="0 0 24 25" fill="none" xmlns="http://www.w3.org/2000/svg">
<path d="M18 9C18 7.4087 17.3679 5.88258 16.2426 4.75736C15.1174 3.63214 13.5913 3 12 3C10.4087 3 8.88258 3.63214 7.75736 4.75736C6.63214 5.88258 6 7.4087 6 9C6 16 3 18 3 18H21C21 18 18 16 18 9Z" stroke="#82F80E" stroke-width="2" stroke-linecap="round" stroke-linejoin="round"/>
<path d="M13.73 22C13.5542 22.3031 13.3019 22.5547 12.9982 22.7295C12.6946 22.9044 12.3504 22.9965 12 22.9965C11.6496 22.9965 11.3054 22.9044 11.0018 22.7295C10.6982 22.5547 10.4458 22.3031 10.27 22" stroke="#82F80E" stroke-width="2" stroke-linecap="round" stroke-linejoin="round"/>
<rect x="1" width="8" height="8" rx="4" fill="#FF0000"/>
</svg>
