<svg width="20" height="20" viewBox="0 0 20 20" fill="none" xmlns="http://www.w3.org/2000/svg">
<path d="M9.16602 15.8335L17.4993 15.8335" stroke="white" stroke-width="2" stroke-linecap="round" stroke-linejoin="round"/>
<path d="M2.5 15.8335H5" stroke="white" stroke-width="2" stroke-linecap="round" stroke-linejoin="round"/>
<path d="M7.08333 17.9167C8.23393 17.9167 9.16667 16.9839 9.16667 15.8333C9.16667 14.6827 8.23393 13.75 7.08333 13.75C5.93274 13.75 5 14.6827 5 15.8333C5 16.9839 5.93274 17.9167 7.08333 17.9167Z" stroke="white" stroke-width="2" stroke-linecap="round" stroke-linejoin="round"/>
<path d="M15.834 10H17.5007" stroke="white" stroke-width="2" stroke-linecap="round" stroke-linejoin="round"/>
<path d="M2.5 10H11.6667" stroke="white" stroke-width="2" stroke-linecap="round" stroke-linejoin="round"/>
<path d="M13.7493 12.0832C14.8999 12.0832 15.8327 11.1504 15.8327 9.99984C15.8327 8.84924 14.8999 7.9165 13.7493 7.9165C12.5988 7.9165 11.666 8.84924 11.666 9.99984C11.666 11.1504 12.5988 12.0832 13.7493 12.0832Z" stroke="white" stroke-width="2" stroke-linecap="round" stroke-linejoin="round"/>
<path d="M10.834 4.1665H17.5007" stroke="white" stroke-width="2" stroke-linecap="round" stroke-linejoin="round"/>
<path d="M2.5 4.1665H6.66667" stroke="white" stroke-width="2" stroke-linecap="round" stroke-linejoin="round"/>
<path d="M8.74935 6.25016C9.89994 6.25016 10.8327 5.31742 10.8327 4.16683C10.8327 3.01624 9.89994 2.0835 8.74935 2.0835C7.59876 2.0835 6.66602 3.01624 6.66602 4.16683C6.66602 5.31742 7.59876 6.25016 8.74935 6.25016Z" stroke="white" stroke-width="2" stroke-linecap="round" stroke-linejoin="round"/>
</svg>
