<svg width="24" height="24" viewBox="0 0 24 24" fill="none" xmlns="http://www.w3.org/2000/svg">
<path d="M17.8281 5.17163C18.1996 5.54307 18.4942 5.98402 18.6952 6.46932C18.8962 6.95463 18.9997 7.47477 18.9997 8.00006C18.9997 8.52535 18.8962 9.04549 18.6952 9.53079C18.4942 10.0161 18.1996 10.4571 17.8281 10.8285" stroke="#14181F" stroke-width="2" stroke-linecap="round" stroke-linejoin="round"/>
<path d="M20 3C20.6566 3.65661 21.1775 4.43612 21.5328 5.29402C21.8882 6.15192 22.0711 7.07141 22.0711 8C22.0711 8.92858 21.8882 9.84808 21.5328 10.706C21.1775 11.5639 20.6566 12.3434 20 13" stroke="#14181F" stroke-width="2" stroke-linecap="round" stroke-linejoin="round"/>
<path d="M3 21C3 18.7909 6.13401 17 10 17C13.866 17 17 18.7909 17 21" stroke="#14181F" stroke-width="2" stroke-linecap="round" stroke-linejoin="round"/>
<path d="M10 13C12.7614 13 15 10.7614 15 8C15 5.23858 12.7614 3 10 3C7.23858 3 5 5.23858 5 8C5 10.7614 7.23858 13 10 13Z" stroke="#14181F" stroke-width="2" stroke-linecap="round" stroke-linejoin="round"/>
</svg>
