<svg width="40" height="40" viewBox="0 0 40 40" fill="none" xmlns="http://www.w3.org/2000/svg">
<path d="M20 36.6663C17.6944 36.6663 15.5278 36.2288 13.5 35.3538C11.4722 34.4788 9.70831 33.2913 8.20831 31.7913C6.70831 30.2913 5.52081 28.5275 4.64581 26.4997C3.77081 24.4719 3.33331 22.3052 3.33331 19.9997C3.33331 17.6941 3.77081 15.5275 4.64581 13.4997C5.52081 11.4719 6.70831 9.70801 8.20831 8.20801C9.70831 6.70801 11.4722 5.52051 13.5 4.64551C15.5278 3.77051 17.6944 3.33301 20 3.33301C22.3055 3.33301 24.4722 3.77051 26.5 4.64551C28.5278 5.52051 30.2916 6.70801 31.7916 8.20801C33.2916 9.70801 34.4791 11.4719 35.3541 13.4997C36.2291 15.5275 36.6666 17.6941 36.6666 19.9997C36.6666 22.3052 36.2291 24.4719 35.3541 26.4997C34.4791 28.5275 33.2916 30.2913 31.7916 31.7913C30.2916 33.2913 28.5278 34.4788 26.5 35.3538C24.4722 36.2288 22.3055 36.6663 20 36.6663ZM10.5416 29.458L20 19.9997V6.66634C16.2778 6.66634 13.125 7.95801 10.5416 10.5413C7.95831 13.1247 6.66665 16.2775 6.66665 19.9997C6.66665 21.7775 6.99998 23.4858 7.66665 25.1247C8.33331 26.7636 9.29165 28.208 10.5416 29.458Z" fill="#82F80E"/>
</svg>
