<svg width="315" height="48" viewBox="0 0 315 48" fill="none" xmlns="http://www.w3.org/2000/svg">
<rect x="0.5" y="0.5" width="314" height="47" rx="7.5" fill="#FEE500"/>
<rect x="0.5" y="0.5" width="314" height="47" rx="7.5" stroke="white"/>
<g clip-path="url(#clip0_390_3093)">
<path opacity="0.902" fill-rule="evenodd" clip-rule="evenodd" d="M78.5 13.2588C72.22 13.2588 66.5 18.3068 66.5 22.5775C66.5 25.7775 68.5773 28.6001 71.7413 30.2775L70.4107 35.1655C70.292 35.5988 70.784 35.9428 71.1613 35.6935L76.9973 31.8201C77.4893 31.8681 77.9907 31.8961 78.5 31.8961C85.1267 31.8961 90.5 27.7241 90.5 22.5775C90.5 18.3068 85.1267 13.2588 78.5 13.2588Z" fill="black"/>
</g>
<path d="M113.297 18.75C113.281 22.8828 112.016 26.5469 106.906 29.0625L106.094 27.9531C108.625 26.7109 110.133 25.2031 110.961 23.4297L106.391 23.8594L106.172 22.5781L111.422 22.2266C111.633 21.5078 111.75 20.75 111.805 19.9531H106.906V18.75H113.297ZM115.438 31.3125V17.3281H116.922V22.9219H119.094V24.1406H116.922V31.3125H115.438ZM126.825 18.75C126.809 22.8828 125.544 26.5469 120.434 29.0625L119.622 27.9531C122.153 26.7109 123.661 25.2031 124.489 23.4297L119.919 23.8594L119.7 22.5781L124.95 22.2266C125.161 21.5078 125.278 20.75 125.333 19.9531H120.434V18.75H126.825ZM128.966 31.3125V17.3281H130.45V22.9219H132.622V24.1406H130.45V31.3125H128.966ZM139.447 18.1719C142.439 18.1797 144.619 19.6562 144.619 21.8906C144.619 23.9844 142.791 25.3828 140.181 25.5938V28.3438H145.884V29.5781H133.072V28.3438H138.712V25.5938C136.119 25.3828 134.283 23.9844 134.291 21.8906C134.283 19.6562 136.47 18.1797 139.447 18.1719ZM135.728 21.8906C135.728 23.4609 137.291 24.4375 139.447 24.4531C141.619 24.4375 143.173 23.4609 143.181 21.8906C143.173 20.375 141.619 19.375 139.447 19.3906C137.291 19.375 135.728 20.375 135.728 21.8906ZM159.366 24.8281V26.0156H146.569V24.8281H152.225V23.5H148.241V17.6875H157.803V18.8594H149.741V20H157.444V21.125H149.741V22.3594H157.897V23.5H153.709V24.8281H159.366ZM148.022 28.3281V27.1406H157.741V31.3281H156.225V28.3281H148.022ZM166.503 18.1719C169.441 18.1719 171.675 19.7266 171.675 22.0781C171.675 24.4453 169.441 25.9922 166.503 25.9844C163.573 25.9922 161.339 24.4453 161.347 22.0781C161.339 19.7266 163.573 18.1719 166.503 18.1719ZM160.128 29.5156V28.2812H172.941V29.5156H160.128ZM162.769 22.0781C162.761 23.7109 164.355 24.7656 166.503 24.7656C168.644 24.7656 170.23 23.7109 170.237 22.0781C170.23 20.4531 168.644 19.3672 166.503 19.375C164.355 19.3672 162.761 20.4531 162.769 22.0781ZM186.469 28.4062V29.6562H173.656V28.4062H179.297V25.9531H175.219V21.5H183.438V19.5312H175.188V18.3125H184.906V22.6875H176.688V24.7344H185.234V25.9531H180.766V28.4062H186.469ZM195.931 20.8906C195.916 23.4453 197.463 26.0234 199.634 26.9844L198.744 28.1562C197.134 27.3906 195.861 25.8203 195.205 23.9062C194.556 25.9609 193.267 27.6484 191.588 28.4688L190.681 27.2188C192.884 26.2422 194.431 23.5625 194.431 20.8906V18.5H195.931V20.8906ZM200.9 31.3594V17.3281H202.384V31.3594H200.9ZM209.209 19.8438C209.202 21.6328 210.444 23.3281 212.584 24.0469L211.834 25.2031C210.248 24.6562 209.084 23.5625 208.475 22.1875C207.866 23.6953 206.647 24.8906 205.006 25.4688L204.209 24.3125C206.397 23.5703 207.717 21.7578 207.725 19.8281V19.4531H204.647V18.25H212.225V19.4531H209.209V19.8438ZM206.069 27.6562V26.4531H215.319V31.3281H213.834V27.6562H206.069ZM213.834 25.7656V17.3281H215.319V20.9219H217.35V22.1719H215.319V25.7656H213.834ZM228.753 17.3281V23H231.003V24.2344H228.753V31.3281H227.284V17.3281H228.753ZM217.769 20.7344V19.5156H221.222V17.5156H222.706V19.5156H226.066V20.7344H217.769ZM218.488 25.0156C218.488 23.1094 219.956 21.7656 221.972 21.7656C223.98 21.7656 225.448 23.1094 225.456 25.0156C225.448 26.9375 223.98 28.2734 221.972 28.2812C219.956 28.2734 218.488 26.9375 218.488 25.0156ZM219.909 25.0156C219.902 26.2344 220.777 27.0469 221.972 27.0312C223.159 27.0469 224.027 26.2344 224.034 25.0156C224.027 23.8203 223.159 22.9922 221.972 22.9844C220.777 22.9922 219.902 23.8203 219.909 25.0156ZM243.016 17.3281V31.3281H241.516V17.3281H243.016ZM231.516 27.5781C235.234 25.8047 237.055 23.2812 237.344 20.0156H232.188V18.8281H238.844C238.844 22.9297 237.102 26.4766 232.297 28.7812L231.516 27.5781Z" fill="black"/>
<defs>
<clipPath id="clip0_390_3093">
<rect width="24" height="24" fill="white" transform="translate(66.5 12)"/>
</clipPath>
</defs>
</svg>
