<svg width="48" height="48" viewBox="0 0 48 48" fill="none" xmlns="http://www.w3.org/2000/svg">
<rect x="23" y="14" width="2" height="3" fill="#3A4857"/>
<path fill-rule="evenodd" clip-rule="evenodd" d="M26.5 34.75H21.5V33.25H26.5V34.75Z" fill="#3A4857"/>
<path d="M25.3944 16.9349L25.4061 16.9384L25.4179 16.9415C27.9447 17.6029 29.781 20.0263 29.781 22.767V29.8789C29.781 30.7555 30.4714 31.4446 31.3473 31.4446H31.4136V31.576H16.5879V31.4446H16.6542C17.5301 31.4446 18.2205 30.7555 18.2205 29.8789V22.5376C18.2205 19.8517 20.0789 17.5805 22.5791 16.9427L22.5969 16.9381L22.6124 16.9333C22.6121 16.9334 22.6121 16.9334 22.6125 16.9333L22.6127 16.9332L22.6193 16.9313C22.6266 16.9292 22.6395 16.9256 22.6577 16.9207C22.694 16.9111 22.7511 16.8967 22.826 16.8803C22.9763 16.8474 23.196 16.8069 23.4625 16.7799C24.0011 16.7253 24.6995 16.7287 25.3944 16.9349Z" stroke="#3A4857" stroke-width="1.5"/>
<circle cx="29" cy="19" r="3" fill="#FF5150"/>
</svg>
