<svg width="20" height="34" viewBox="0 0 20 34" fill="none" xmlns="http://www.w3.org/2000/svg">
<path d="M4.16602 8.50016C4.16602 7.71776 4.53911 7.0835 4.99935 7.0835H7.49935C7.95959 7.0835 8.33268 7.71776 8.33268 8.50016V25.5002C8.33268 26.2826 7.95959 26.9168 7.49935 26.9168H4.99935C4.53911 26.9168 4.16602 26.2826 4.16602 25.5002V8.50016Z" stroke="white" stroke-width="2" stroke-linecap="round" stroke-linejoin="round"/>
<path d="M11.666 8.50016C11.666 7.71776 12.0391 7.0835 12.4993 7.0835H14.9993C15.4596 7.0835 15.8327 7.71776 15.8327 8.50016V25.5002C15.8327 26.2826 15.4596 26.9168 14.9993 26.9168H12.4993C12.0391 26.9168 11.666 26.2826 11.666 25.5002V8.50016Z" stroke="white" stroke-width="2" stroke-linecap="round" stroke-linejoin="round"/>
</svg>
