<svg width="40" height="40" viewBox="0 0 40 40" fill="none" xmlns="http://www.w3.org/2000/svg">
<path d="M14.4716 5H25.5284C25.9704 5 26.3943 5.1756 26.7069 5.48816L34.5118 13.2931C34.8244 13.6056 35 14.0296 35 14.4716V25.5284C35 25.9704 34.8244 26.3943 34.5118 26.7069L26.7069 34.5118C26.3943 34.8244 25.9704 35 25.5284 35H14.4716C14.0296 35 13.6056 34.8244 13.2931 34.5118L5.48815 26.7069C5.17559 26.3943 5 25.9704 5 25.5284V14.4716C5 14.0296 5.17559 13.6057 5.48816 13.2931L13.2931 5.48816C13.6057 5.17559 14.0296 5 14.4716 5Z" stroke="#82F80E" stroke-width="2" stroke-miterlimit="10" stroke-linecap="round" stroke-linejoin="round"/>
<path d="M25 16.6665L18.3333 23.3332L15 19.9998" stroke="#82F80E" stroke-width="2" stroke-linecap="round" stroke-linejoin="round"/>
</svg>
