<svg width="48" height="48" viewBox="0 0 48 48" fill="none" xmlns="http://www.w3.org/2000/svg">
<mask id="mask0_7186_67676" style="mask-type:luminance" maskUnits="userSpaceOnUse" x="12" y="12" width="24" height="24">
<path d="M12 12H36V36H12V12Z" fill="white"/>
</mask>
<g mask="url(#mask0_7186_67676)">
<path d="M23.9995 20.6667C22.0947 20.6667 20.5506 22.159 20.5506 24C20.5506 25.8409 22.0947 27.3333 23.9995 27.3333C25.9043 27.3333 27.4484 25.8409 27.4484 24C27.4484 22.159 25.9043 20.6667 23.9995 20.6667ZM33.6799 21.6213L32.7461 22.3643C31.6809 23.2118 31.6809 24.7882 32.7461 25.6357L33.6799 26.3786C34.0108 26.6419 34.0963 27.0979 33.882 27.4567L32.0381 30.5433C31.8238 30.9021 31.3725 31.0585 30.9711 30.9132L29.8385 30.5031C28.5465 30.0353 27.134 30.8235 26.9071 32.1388L26.7083 33.2919C26.6378 33.7005 26.272 34 25.8434 34H22.1556C21.727 34 21.3612 33.7005 21.2907 33.2919L21.0919 32.1388C20.8651 30.8235 19.4525 30.0353 18.1605 30.5031L17.0279 30.9132C16.6265 31.0585 16.1752 30.9021 15.9609 30.5433L14.117 27.4567C13.9027 27.0979 13.9882 26.6419 14.3191 26.3786L15.2529 25.6357C16.3181 24.7882 16.3181 23.2118 15.2529 22.3643L14.3191 21.6213C13.9882 21.358 13.9027 20.9021 14.117 20.5433L15.9609 17.4567C16.1752 17.0979 16.6265 16.9414 17.0279 17.0868L18.1605 17.4969C19.4525 17.9647 20.8651 17.1765 21.0919 15.8612L21.2907 14.7081C21.3612 14.2995 21.727 14 22.1556 14H25.8434C26.272 14 26.6378 14.2995 26.7083 14.7081L26.9071 15.8612C27.134 17.1765 28.5465 17.9647 29.8385 17.4969L30.9711 17.0868C31.3725 16.9414 31.8238 17.0979 32.0381 17.4567L33.882 20.5433C34.0963 20.9021 34.0108 21.358 33.6799 21.6213Z" stroke="#3A4857" stroke-width="1.5" stroke-miterlimit="10" stroke-linecap="round" stroke-linejoin="round"/>
</g>
</svg>
