<svg width="315" height="48" viewBox="0 0 315 48" fill="none" xmlns="http://www.w3.org/2000/svg">
<rect x="0.5" y="0.5" width="314" height="47" rx="7.5" fill="#050708"/>
<rect x="0.5" y="0.5" width="314" height="47" rx="7.5" stroke="white"/>
<path d="M102.781 30.424C102.433 31.2275 102.021 31.9672 101.544 32.6472C100.894 33.5743 100.362 34.216 99.9513 34.5724C99.3153 35.1573 98.6338 35.4568 97.9041 35.4739C97.3802 35.4739 96.7485 35.3248 96.013 35.0224C95.2752 34.7214 94.5972 34.5724 93.9772 34.5724C93.327 34.5724 92.6296 34.7214 91.8837 35.0224C91.1366 35.3248 90.5348 35.4824 90.0747 35.498C89.3749 35.5278 88.6774 35.2197 87.9812 34.5724C87.5368 34.1848 86.981 33.5204 86.3151 32.5791C85.6007 31.5739 85.0134 30.4084 84.5533 29.0795C84.0605 27.6442 83.8135 26.2543 83.8135 24.9087C83.8135 23.3673 84.1465 22.0379 84.8137 20.9238C85.338 20.029 86.0355 19.3231 86.9084 18.8049C87.7814 18.2867 88.7247 18.0227 89.7405 18.0058C90.2963 18.0058 91.0252 18.1777 91.931 18.5156C92.8342 18.8546 93.4141 19.0265 93.6684 19.0265C93.8585 19.0265 94.5028 18.8255 95.5949 18.4247C96.6278 18.0531 97.4995 17.8992 98.2136 17.9598C100.149 18.1159 101.602 18.8788 102.569 20.253C100.839 21.3016 99.9826 22.7703 99.9996 24.6544C100.015 26.122 100.548 27.3432 101.594 28.3129C102.068 28.7629 102.598 29.1107 103.187 29.3578C103.059 29.7283 102.924 30.0832 102.781 30.424ZM98.3428 12.9601C98.3428 14.1104 97.9226 15.1844 97.0849 16.1785C96.0741 17.3602 94.8514 18.0431 93.5256 17.9354C93.5087 17.7974 93.4989 17.6521 93.4989 17.4995C93.4989 16.3953 93.9796 15.2135 94.8333 14.2472C95.2595 13.758 95.8015 13.3512 96.4588 13.0267C97.1147 12.7071 97.7352 12.5303 98.3187 12.5C98.3357 12.6538 98.3428 12.8076 98.3428 12.9601V12.9601Z" fill="white"/>
<path d="M122.625 30H120.797L124.859 18.6875H126.844L130.922 30H129.094L128.062 27.0156H123.656L122.625 30ZM124.148 25.5781H127.562L125.891 20.75H125.812L124.148 25.5781ZM131.919 33.1875V21.5156H133.544V22.8906H133.684C133.981 22.3594 134.552 21.4062 136.122 21.4062C138.177 21.4062 139.684 23.0156 139.684 25.7812C139.684 28.5156 138.192 30.1641 136.137 30.1719C134.598 30.1641 133.989 29.2266 133.684 28.6719H133.591V33.1875H131.919ZM133.559 25.75C133.559 27.5312 134.341 28.7422 135.762 28.75C137.231 28.7422 137.997 27.4531 137.997 25.75C137.997 24.0781 137.255 22.8203 135.762 22.8281C134.325 22.8203 133.559 23.9844 133.559 25.75ZM141.041 33.1875V21.5156H142.666V22.8906H142.806C143.103 22.3594 143.673 21.4062 145.244 21.4062C147.298 21.4062 148.806 23.0156 148.806 25.7812C148.806 28.5156 147.314 30.1641 145.259 30.1719C143.72 30.1641 143.111 29.2266 142.806 28.6719H142.712V33.1875H141.041ZM142.681 25.75C142.681 27.5312 143.462 28.7422 144.884 28.75C146.353 28.7422 147.119 27.4531 147.119 25.75C147.119 24.0781 146.377 22.8203 144.884 22.8281C143.447 22.8203 142.681 23.9844 142.681 25.75ZM151.834 18.6875V30H150.163V18.6875H151.834ZM157.222 30.1719C154.722 30.1719 153.183 28.4453 153.191 25.8125C153.183 23.2031 154.745 21.4062 157.112 21.4062C159.042 21.4062 160.878 22.6016 160.878 25.6719V26.2656H154.847C154.894 27.8828 155.847 28.7969 157.237 28.7969C158.183 28.7969 158.8 28.3906 159.081 27.875H160.769C160.394 29.25 159.089 30.1719 157.222 30.1719ZM154.855 25.0156H159.237C159.237 23.7266 158.402 22.7734 157.128 22.7812C155.792 22.7734 154.925 23.8203 154.855 25.0156ZM174.547 28.4062V29.6562H161.734V28.4062H167.375V25.9531H163.297V21.5H171.516V19.5312H163.266V18.3125H172.984V22.6875H164.766V24.7344H173.312V25.9531H168.844V28.4062H174.547ZM190.9 17.3281V31.3281H189.494V17.3281H190.9ZM178.791 27.2812C181.767 25.5156 183.189 23.1641 183.447 20.2812H179.478V19.0625H184.916C184.916 19.7812 184.861 20.4766 184.752 21.1562H186.634V17.6875H188.041V30.6406H186.634V25.875H184.244V24.6562H186.634V22.375H184.478C183.798 24.7266 182.306 26.7734 179.666 28.3438L178.791 27.2812ZM205.194 24.2812V25.5H192.397V24.2812H198.037V22.2344H199.506V24.2812H205.194ZM193.131 21.8281C195.811 21.4844 198.014 19.9062 198.022 18.1406V17.5469H199.522V18.1406C199.514 19.9297 201.709 21.4844 204.412 21.8281L203.834 23C201.616 22.6406 199.655 21.5625 198.764 20.0156C197.873 21.5625 195.912 22.6406 193.678 23L193.131 21.8281ZM193.819 27.9062V26.7344H203.6V31.3281H202.1V27.9062H193.819ZM216.831 17.3281V23H219.081V24.2344H216.831V31.3281H215.363V17.3281H216.831ZM205.847 20.7344V19.5156H209.3V17.5156H210.784V19.5156H214.144V20.7344H205.847ZM206.566 25.0156C206.566 23.1094 208.034 21.7656 210.05 21.7656C212.058 21.7656 213.527 23.1094 213.534 25.0156C213.527 26.9375 212.058 28.2734 210.05 28.2812C208.034 28.2734 206.566 26.9375 206.566 25.0156ZM207.988 25.0156C207.98 26.2344 208.855 27.0469 210.05 27.0312C211.238 27.0469 212.105 26.2344 212.113 25.0156C212.105 23.8203 211.238 22.9922 210.05 22.9844C208.855 22.9922 207.98 23.8203 207.988 25.0156ZM231.094 17.3281V31.3281H229.594V17.3281H231.094ZM219.594 27.5781C223.312 25.8047 225.133 23.2812 225.422 20.0156H220.266V18.8281H226.922C226.922 22.9297 225.18 26.4766 220.375 28.7812L219.594 27.5781Z" fill="white"/>
</svg>
