<svg width="149" height="80" viewBox="0 0 149 80" fill="none" xmlns="http://www.w3.org/2000/svg">
<g filter="url(#filter0_d_526_3109)">
<path d="M109.918 69.8936L111.162 63.766H110.985C105.919 69.0319 98.6316 72 90.9888 72C73.9258 72 64.861 61.8511 68.4158 43.8511C71.3485 28.8191 84.0569 16.6596 101.742 16.6596C110.096 16.6596 115.961 19.6277 118.183 24.6064H118.361L123.16 0H142L128.225 69.8936H109.918ZM114.45 44.0426C116.05 36 112.495 30.8298 103.697 30.8298C95.0768 30.8298 89.478 35.4255 87.7006 44.0426C86.0121 52.6596 89.8335 57.2553 98.4539 57.2553C107.252 57.2553 112.94 52.0851 114.45 44.0426Z" fill="#82F80E"/>
</g>
<g filter="url(#filter1_d_526_3109)">
<path d="M33.7266 16.2764L31.4159 27.8615H52.4781C57.0105 27.8615 59.4988 25.1807 60.1209 22.0211C60.743 18.9573 59.3211 16.2764 54.7887 16.2764H33.7266ZM26.0838 55.1488H48.8345C53.278 55.1488 56.7439 52.5637 57.6326 48.0637C58.5213 43.5637 56.0329 41.2658 51.5894 41.2658H28.8387L26.0838 55.1488ZM2 69.8934L15.5082 1.53174H68.0304C83.4049 1.53174 84.0269 11.7764 82.6939 18.3828C81.4497 24.7977 77.0951 30.3509 72.2072 32.17L72.1184 32.3615C78.517 33.9892 81.7163 39.8296 79.7612 49.4998C78.1615 57.6381 72.2072 69.8934 52.7447 69.8934H2Z" fill="#82F80E"/>
</g>
<defs>
<filter id="filter0_d_526_3109" x="66.3943" y="0" width="81.8912" height="79.5426" filterUnits="userSpaceOnUse" color-interpolation-filters="sRGB">
<feFlood flood-opacity="0" result="BackgroundImageFix"/>
<feColorMatrix in="SourceAlpha" type="matrix" values="0 0 0 0 0 0 0 0 0 0 0 0 0 0 0 0 0 0 127 0" result="hardAlpha"/>
<feOffset dx="2.51418" dy="3.77128"/>
<feGaussianBlur stdDeviation="1.88564"/>
<feComposite in2="hardAlpha" operator="out"/>
<feColorMatrix type="matrix" values="0 0 0 0 0.106756 0 0 0 0 0.17535 0 0 0 0 0.0394815 0 0 0 1 0"/>
<feBlend mode="normal" in2="BackgroundImageFix" result="effect1_dropShadow_526_3109"/>
<feBlend mode="normal" in="SourceGraphic" in2="effect1_dropShadow_526_3109" result="shape"/>
</filter>
<filter id="filter1_d_526_3109" x="0.742908" y="1.53174" width="88.6998" height="75.9044" filterUnits="userSpaceOnUse" color-interpolation-filters="sRGB">
<feFlood flood-opacity="0" result="BackgroundImageFix"/>
<feColorMatrix in="SourceAlpha" type="matrix" values="0 0 0 0 0 0 0 0 0 0 0 0 0 0 0 0 0 0 127 0" result="hardAlpha"/>
<feOffset dx="2.51418" dy="3.77128"/>
<feGaussianBlur stdDeviation="1.88564"/>
<feComposite in2="hardAlpha" operator="out"/>
<feColorMatrix type="matrix" values="0 0 0 0 0.106756 0 0 0 0 0.17535 0 0 0 0 0.0394815 0 0 0 1 0"/>
<feBlend mode="normal" in2="BackgroundImageFix" result="effect1_dropShadow_526_3109"/>
<feBlend mode="normal" in="SourceGraphic" in2="effect1_dropShadow_526_3109" result="shape"/>
</filter>
</defs>
</svg>
