<svg width="67" height="67" viewBox="0 0 67 67" fill="none" xmlns="http://www.w3.org/2000/svg">
<path d="M33.5 0C15.008 0 0 15.008 0 33.5C0 51.992 15.008 67 33.5 67C51.992 67 67 51.992 67 33.5C67 15.008 51.992 0 33.5 0ZM33.5 13.4C39.9655 13.4 45.225 18.6595 45.225 25.125C45.225 31.5905 39.9655 36.85 33.5 36.85C27.0345 36.85 21.775 31.5905 21.775 25.125C21.775 18.6595 27.0345 13.4 33.5 13.4ZM33.5 60.3C26.6995 60.3 18.6595 57.553 12.931 50.652C18.5925 46.23 25.728 43.55 33.5 43.55C41.272 43.55 48.4075 46.23 54.069 50.652C48.3405 57.553 40.3005 60.3 33.5 60.3Z" fill="#D9D9D9"/>
</svg>
