<svg width="16" height="16" viewBox="0 0 16 16" fill="none" xmlns="http://www.w3.org/2000/svg">
<g clip-path="url(#clip0_473_3369)">
<path d="M12.3092 14.8458C11.7755 15.2259 8.35139 12.8164 7.69559 12.8111C7.03979 12.8059 3.5771 15.1599 3.04968 14.7713C2.52225 14.3826 3.7622 10.3908 3.5646 9.76723C3.367 9.1437 0.0516856 6.58725 0.259359 5.96696C0.467078 5.34667 4.65754 5.28906 5.1912 4.90895C5.72485 4.52889 7.13859 0.594853 7.79444 0.600103C8.45019 0.605399 9.80007 4.56167 10.3275 4.95031C10.8549 5.33891 15.044 5.464 15.2416 6.08753C15.4392 6.71107 12.083 9.21382 11.8753 9.83411C11.6676 10.4544 12.8428 14.4657 12.3092 14.8458Z" fill="#F8B84E"/>
</g>
<defs>
<clipPath id="clip0_473_3369">
<rect width="15.5" height="15.5" fill="white"/>
</clipPath>
</defs>
</svg>
